<?xml version="1.0" standalone="no"?>
<!DOCTYPE svg PUBLIC "-//W3C//DTD SVG 20010904//EN"
 "http://www.w3.org/TR/2001/REC-SVG-20010904/DTD/svg10.dtd">
<svg version="1.0" xmlns="http://www.w3.org/2000/svg"
 width="273.000000pt" height="120.000000pt" viewBox="0 0 273.000000 120.000000"
 preserveAspectRatio="xMidYMid meet">

<g transform="translate(0.000000,120.000000) scale(0.100000,-0.100000)"
fill="#000000" stroke="none">
<path d="M550 625 c0 -47 2 -85 4 -85 2 0 23 25 46 55 l43 55 54 -70 c30 -38
56 -70 59 -70 2 0 4 45 4 100 l0 100 -105 0 -105 0 0 -85z"/>
<path d="M823 625 c0 -22 2 -30 4 -17 2 12 2 30 0 40 -3 9 -5 -1 -4 -23z"/>
<path d="M857 653 c-4 -3 -7 -17 -7 -30 0 -26 25 -42 42 -25 7 7 4 10 -8 9
-13 -1 -20 6 -22 22 -3 20 0 23 17 18 12 -3 21 -1 21 4 0 10 -33 12 -43 2z"/>
<path d="M921 623 c1 -33 2 -35 8 -13 l7 25 7 -25 c3 -13 9 -21 13 -17 8 8
-15 67 -27 67 -5 0 -9 -17 -8 -37z"/>
<path d="M964 645 c-3 -8 1 -22 10 -30 15 -15 16 -14 16 14 0 32 -16 42 -26
16z"/>
<path d="M1011 628 c-6 -17 -9 -34 -6 -36 3 -3 5 0 5 6 0 7 9 12 20 12 11 0
20 -5 20 -12 0 -6 2 -9 5 -6 7 7 -15 68 -25 68 -4 0 -13 -14 -19 -32z m29 2
c0 -5 -4 -10 -10 -10 -5 0 -10 5 -10 10 0 6 5 10 10 10 6 0 10 -4 10 -10z"/>
<path d="M1101 623 c1 -21 3 -31 6 -22 2 10 13 19 24 22 29 8 24 37 -6 37 -22
0 -25 -4 -24 -37z m39 17 c0 -5 -7 -10 -15 -10 -8 0 -15 5 -15 10 0 6 7 10 15
10 8 0 15 -4 15 -10z"/>
<path d="M1268 648 c-3 -7 -1 -24 3 -38 6 -21 7 -22 9 -5 1 11 3 28 5 38 4 19
-11 24 -17 5z"/>
<path d="M1673 625 c0 -22 2 -30 4 -17 2 12 2 30 0 40 -3 9 -5 -1 -4 -23z"/>
<path d="M1730 644 c0 -9 9 -18 20 -21 11 -3 17 -10 14 -15 -3 -5 -13 -7 -23
-3 -12 5 -13 3 -4 -6 6 -6 19 -9 27 -6 20 8 21 37 2 37 -8 0 -18 5 -22 12 -5
8 0 9 14 6 12 -4 20 -2 16 3 -9 15 -44 10 -44 -7z"/>
<path d="M1170 615 c0 -14 2 -25 4 -25 2 0 6 11 8 25 3 14 1 25 -3 25 -5 0 -9
-11 -9 -25z"/>
<path d="M1203 624 c-3 -8 -1 -20 5 -26 16 -16 42 -2 42 22 0 24 -38 28 -47 4z
m37 -9 c0 -8 -4 -15 -9 -15 -13 0 -22 16 -14 24 11 11 23 6 23 -9z"/>
<path d="M1302 618 c2 -13 10 -23 18 -23 8 0 16 10 18 23 3 17 -2 22 -18 22
-16 0 -21 -5 -18 -22z m28 -3 c0 -8 -4 -15 -8 -15 -5 0 -9 7 -9 15 0 8 4 15 9
15 4 0 8 -7 8 -15z"/>
<path d="M1355 630 c-4 -6 1 -13 10 -16 13 -6 14 -8 3 -15 -10 -7 -9 -9 4 -9
26 0 29 15 8 33 -11 9 -22 12 -25 7z"/>
<path d="M1413 617 c0 -20 4 -27 15 -25 20 4 28 28 9 28 -9 0 -17 6 -20 13 -2
6 -4 -1 -4 -16z"/>
<path d="M1472 615 c0 -16 2 -22 5 -12 2 9 2 23 0 30 -3 6 -5 -1 -5 -18z"/>
<path d="M1493 624 c-3 -8 -1 -20 5 -26 16 -16 42 -2 42 22 0 24 -38 28 -47 4z
m37 -9 c0 -8 -4 -15 -9 -15 -13 0 -22 16 -14 24 11 11 23 6 23 -9z"/>
<path d="M1561 618 c1 -17 2 -19 6 -5 6 24 21 21 26 -5 4 -20 4 -19 6 5 1 21
-4 27 -19 27 -14 0 -20 -6 -19 -22z"/>
<path d="M1640 621 c0 -11 5 -23 10 -26 6 -3 10 3 10 14 0 11 -4 23 -10 26 -5
3 -10 -3 -10 -14z"/>
<path d="M1794 625 c-7 -18 3 -35 20 -35 14 0 28 35 18 44 -10 11 -33 6 -38
-9z m23 -17 c-3 -8 -6 -5 -6 6 -1 11 2 17 5 13 3 -3 4 -12 1 -19z"/>
<path d="M1851 613 c1 -22 2 -23 6 -8 3 11 10 23 17 27 7 5 5 8 -6 8 -13 0
-18 -7 -17 -27z"/>
<path d="M1890 630 c0 -8 4 -21 9 -29 7 -11 11 -10 20 7 14 26 14 43 1 22 -9
-13 -11 -13 -20 0 -9 13 -10 13 -10 0z"/>
<path d="M1952 620 c0 -14 2 -19 5 -12 2 6 2 18 0 25 -3 6 -5 1 -5 -13z"/>
<path d="M1974 625 c-3 -8 -3 -19 1 -25 8 -13 35 -13 35 0 0 6 -5 9 -11 8 -19
-5 -21 20 -2 25 17 4 17 5 0 6 -10 0 -20 -6 -23 -14z"/>
<path d="M2027 626 c-6 -16 19 -43 30 -32 3 3 1 6 -5 6 -7 0 -12 7 -12 15 0
17 16 20 23 5 3 -6 4 -5 3 2 -4 19 -32 22 -39 4z"/>
<path d="M2083 620 c4 -27 13 -34 33 -26 16 6 15 8 -4 26 -27 25 -33 25 -29 0z"/>
<path d="M1616 612 c-3 -6 -1 -14 5 -17 14 -9 20 -2 10 14 -6 8 -11 9 -15 3z"/>
</g>
</svg>
